<?xml version="1.0" encoding="UTF-8" standalone="no"?>
<!-- Created with Inkscape (http://www.inkscape.org/) -->

<svg
   xmlns:dc="http://purl.org/dc/elements/1.1/"
   xmlns:cc="http://creativecommons.org/ns#"
   xmlns:rdf="http://www.w3.org/1999/02/22-rdf-syntax-ns#"
   xmlns:svg="http://www.w3.org/2000/svg"
   xmlns="http://www.w3.org/2000/svg"
   xmlns:sodipodi="http://sodipodi.sourceforge.net/DTD/sodipodi-0.dtd"
   xmlns:inkscape="http://www.inkscape.org/namespaces/inkscape"
   width="32"
   height="32"
   viewBox="0 0 32 32"
   version="1.1"
   id="svg8"
   inkscape:version="0.92.4 (5da689c313, 2019-01-14)"
   sodipodi:docname="icon-github.svg">
  <defs
     id="defs2" />
  <sodipodi:namedview
     id="base"
     pagecolor="#ffffff"
     bordercolor="#666666"
     borderopacity="1.0"
     inkscape:pageopacity="0.0"
     inkscape:pageshadow="2"
     inkscape:zoom="15.839192"
     inkscape:cx="21.652913"
     inkscape:cy="15.73132"
     inkscape:document-units="px"
     inkscape:current-layer="layer1"
     showgrid="true">
    <inkscape:grid
       type="xygrid"
       id="grid10" />
  </sodipodi:namedview>
  <metadata
     id="metadata5">
    <rdf:RDF>
      <cc:Work
         rdf:about="">
        <dc:format>image/svg+xml</dc:format>
        <dc:type
           rdf:resource="http://purl.org/dc/dcmitype/StillImage" />
        <dc:title></dc:title>
      </cc:Work>
    </rdf:RDF>
  </metadata>
  <g
     inkscape:label="Layer 1"
     inkscape:groupmode="layer"
     id="layer1"
     transform="translate(0,-448)">
    <ellipse
       style="opacity:1;vector-effect:none;fill:#000000;fill-opacity:1;stroke:none;stroke-width:5;stroke-linecap:round;stroke-linejoin:round;stroke-miterlimit:4;stroke-dasharray:none;stroke-dashoffset:0;stroke-opacity:1"
       id="path931"
       cx="-204.496"
       cy="416.67575"
       rx="12.5"
       ry="11.5"
       transform="rotate(-28.289776)" />
    <path
       style="fill:#000000;stroke:#000000;stroke-width:1.00064206px;stroke-linecap:butt;stroke-linejoin:miter;stroke-opacity:1"
       d="m 19,453 c 0,0 -8.495521,-3.77153 -8.495521,-2.82865 0,0.94289 0,6.60018 0,6.60018 l -1.0619401,2.82865 c 0,0 -8.4955214,-2.82865 -8.4955214,-1.88577 0,0.94288 3.1858205,8.48594 5.3097009,7.54306 C 8.3805987,464.31459 19,453 19,453"
       id="path933"
       inkscape:connector-curvature="0" />
    <ellipse
       style="opacity:1;vector-effect:none;fill:#ffffff;fill-opacity:1;stroke:none;stroke-width:5;stroke-linecap:round;stroke-linejoin:round;stroke-miterlimit:4;stroke-dasharray:none;stroke-dashoffset:0;stroke-opacity:1"
       id="path935"
       cx="304.76578"
       cy="-348.28778"
       rx="9"
       ry="6"
       transform="rotate(136.79245)" />
    <path
       style="fill:#000000;stroke:#000000;stroke-width:1px;stroke-linecap:butt;stroke-linejoin:miter;stroke-opacity:1"
       d="m 28.947017,467.25254 c 0,0 1,0 2,4 1,4 -4,6 -4,6 0,0 -14,2 -16,0 -1.9999995,-2 -8.9999995,-5 -8.9999995,-4 0,1 18.9999995,4 22.9999995,-1 4,-5 4,-5 4,-5 z"
       id="path937"
       inkscape:connector-curvature="0" />
  </g>
</svg>
